<svg xmlns="http://www.w3.org/2000/svg" width="81.593" height="80.119" viewBox="0 0 81.593 80.119"><g transform="translate(-918 -1975)"><path d="M8.708,80.112a1.818,1.818,0,0,1-1.393-.7C7.053,79.067,0,70.1,0,52.246,0,39.1,4.441,31,8.011,24.468a55.785,55.785,0,0,0,3.4-6.879A50.161,50.161,0,0,0,14.8,1.654a1.744,1.744,0,0,1,3.483.174,50.319,50.319,0,0,1-3.57,17.155,56.352,56.352,0,0,1-3.657,7.228c-3.57,6.444-7.576,13.758-7.576,26.037,0,16.632,6.531,24.992,6.618,25.079a1.691,1.691,0,0,1-.261,2.438A1.915,1.915,0,0,1,8.708,80.112Z" transform="translate(918 1975.008)" fill="#009de0"/><path d="M82.192,80.113a1.52,1.52,0,0,1-1.045-.348,1.691,1.691,0,0,1-.261-2.438c.087-.087,6.618-8.534,6.618-25.079,0-12.278-4.006-19.593-7.576-26.037a70.415,70.415,0,0,1-3.657-7.228A50.319,50.319,0,0,1,72.7,1.829a1.744,1.744,0,0,1,3.483-.174,45.415,45.415,0,0,0,3.4,15.935,55.785,55.785,0,0,0,3.4,6.879c3.57,6.531,8.011,14.542,8.011,27.778,0,17.851-7.053,26.82-7.315,27.169A2.146,2.146,0,0,1,82.192,80.113Z" transform="translate(908.606 1975.007)" fill="#009de0"/><path d="M45.12,85.994a1.747,1.747,0,0,1-1.742-1.742V71.017l-9.056-9.056a1.724,1.724,0,0,1,2.438-2.438L46.339,69.1a1.719,1.719,0,0,1,.522,1.219V84.253A1.747,1.747,0,0,1,45.12,85.994Z" transform="translate(913.633 1967.383)" fill="#009de0"/><path d="M46.542,85.994A1.747,1.747,0,0,1,44.8,84.253V70.32a1.719,1.719,0,0,1,.522-1.219L54.9,59.522a1.724,1.724,0,0,1,2.438,2.438l-9.056,9.056V84.253A1.747,1.747,0,0,1,46.542,85.994Z" transform="translate(912.211 1967.383)" fill="#009de0"/><path d="M46.555,22.909A1.653,1.653,0,0,1,44.9,21.255a1.655,1.655,0,0,1,3.309,0A1.653,1.653,0,0,1,46.555,22.909Zm0-1.916a.261.261,0,1,0,.261.261A.231.231,0,0,0,46.555,20.993Z" transform="translate(912.198 1972.474)" fill="#009de0"/><g transform="matrix(0.951, -0.309, 0.309, 0.951, 932.111, 2013.6)" fill="none"><path d="M7.263,0a7.263,7.263,0,0,1,7.263,7.263c0,4.011-7.263,7.263-7.263,7.263S0,11.275,0,7.263A7.263,7.263,0,0,1,7.263,0Z" stroke="none"/><path d="M 7.263428211212158 1.999998092651367 C 4.36115837097168 1.999998092651367 1.999998092651367 4.36115837097168 1.999998092651367 7.263428211212158 C 1.999998092651367 8.197988510131836 3.004657745361328 9.466768264770508 4.756368637084961 10.74442863464355 C 5.67957592010498 11.41779232025146 6.619614124298096 11.95448398590088 7.263400077819824 12.29427051544189 C 7.907557487487793 11.95430946350098 8.847379684448242 11.41771984100342 9.770488739013672 10.74442863464355 C 11.52219772338867 9.466768264770508 12.52685832977295 8.197988510131836 12.52685832977295 7.263428211212158 C 12.52685832977295 4.36115837097168 10.16569805145264 1.999998092651367 7.263428211212158 1.999998092651367 M 7.263428211212158 -1.9073486328125e-06 C 11.2749080657959 -1.9073486328125e-06 14.52685832977295 3.251948356628418 14.52685832977295 7.263428211212158 C 14.52685832977295 11.2749080657959 7.263428211212158 14.52685832977295 7.263428211212158 14.52685832977295 C 7.263428211212158 14.52685832977295 -1.9073486328125e-06 11.2749080657959 -1.9073486328125e-06 7.263428211212158 C -1.9073486328125e-06 3.251948356628418 3.251948356628418 -1.9073486328125e-06 7.263428211212158 -1.9073486328125e-06 Z" stroke="none" fill="#009de0"/></g></g></svg>