<svg xmlns="http://www.w3.org/2000/svg" width="44.139" height="103.235" viewBox="0 0 44.139 103.235"><g transform="translate(-432.635 -1676.373)"><path d="M51,63.8" transform="translate(422.649 1663.92)" fill="none" stroke="#009de0" stroke-linecap="round" stroke-linejoin="round" stroke-miterlimit="10" stroke-width="4"/><path d="M24.649,101.188s-10.055,0-13.805-20.668c-1.6-12.768-4.788-24.9-6.384-27.611-1.6-2.633-4.788-13.805,0-19.631,0,0-4.229-10.613,2.633-12.768,0,2.633-1.037-5.267,4.788-4.788a5.562,5.562,0,0,1,6.863-4.229s-.559-5.586,3.671-5.586c3.751.559,3.192,1.835,3.192,1.835l1.6,7.741s-.559,4.469.559,2.873S21.457,4.631,31.592,2c0,0,9.576-1.037,6.863,17.476a42.05,42.05,0,0,1,2.474,3.511c3.352,8.778-1.6,20.668-5.666,28.329-.559,6.863,0,20.189,1.6,26.015S40.05,101.747,24.649,101.188Z" transform="translate(432.712 1676.406)" fill="none" stroke="#009de0" stroke-linecap="round" stroke-linejoin="round" stroke-miterlimit="10" stroke-width="4"/><path d="M8.8,25c.185,1.017.925,5.641,1.11,6.751l.74,3.422" transform="translate(432.195 1671.474)" fill="none" stroke="#009de0" stroke-linecap="round" stroke-linejoin="round" stroke-miterlimit="10" stroke-width="4"/><path d="M14.8,19a47.324,47.324,0,0,0,1.572,7.86" transform="translate(430.056 1675.126)" fill="none" stroke="#009de0" stroke-linecap="round" stroke-linejoin="round" stroke-miterlimit="10" stroke-width="4"/><path d="M22.8,13c.832,1.11,1.942,6.2,2.219,9.247" transform="translate(428.363 1675.578)" fill="none" stroke="#009de0" stroke-linecap="round" stroke-linejoin="round" stroke-miterlimit="10" stroke-width="4"/><path d="M27.1,66.952s9.8,3.7,15.351-3.052" transform="translate(426.055 1663.612)" fill="none" stroke="#009de0" stroke-linecap="round" stroke-linejoin="round" stroke-miterlimit="10" stroke-width="4"/><path d="M33.843,24C14.424,25.849,9.8,36.946,9.8,36.946" transform="translate(430.054 1671.606)" fill="none" stroke="#009de0" stroke-linecap="round" stroke-linejoin="round" stroke-miterlimit="10" stroke-width="4"/><path d="M35.8,24s8.323,4.624,11.1,0" transform="translate(423.793 1674.75)" fill="none" stroke="#009de0" stroke-linecap="round" stroke-linejoin="round" stroke-miterlimit="10" stroke-width="4"/><path d="M16.823,44.3a5.59,5.59,0,0,0-4.531,6.566,6,6,0,0,0,7.675-1.572,1.922,1.922,0,0,0,.462-1.11c.185-1.2-1.017-2.127-2.219-2.5-1.11-.37-2.4-.462-3.329-1.295" transform="translate(430.358 1667.494)" fill="none" stroke="#009de0" stroke-linecap="round" stroke-linejoin="round" stroke-miterlimit="10" stroke-width="4"/><path d="M39,108.8c-2.589.185-1.757,5.086-4.161,6.011a3.851,3.851,0,0,1-2.5-.277,2.959,2.959,0,0,0-2.5-.092c-.74.37-1.017,1.757-.185,2.034,1.849-.092,3.606-.092,5.456-.185a2.064,2.064,0,0,0,1.295-.277,2.413,2.413,0,0,0,1.017-1.48,12.576,12.576,0,0,0,.647-5.548" transform="translate(426.286 1652.61)" fill="none" stroke="#009de0" stroke-linecap="round" stroke-linejoin="round" stroke-miterlimit="10" stroke-width="4"/></g></svg>