<svg xmlns="http://www.w3.org/2000/svg" width="70" height="96.273" viewBox="0 0 70 96.273"><path d="M78.622,36.282a1.315,1.315,0,0,0-2.444.519c-.651,5.967-4.13,9.46-7.169,10.739a6.572,6.572,0,0,1-6.667-.473c-2.443-1.917-3.718-3.99-3.788-6.159-.116-3.561,2.98-6.88,4.837-8.542a25.03,25.03,0,0,0,7.057-10.439C75.834,6.217,58.751.129,58.581.069A1.317,1.317,0,0,0,57.272,2.29c.192.175,4.635,4.383.235,12.569-1.361,2.532-2.819,3.132-5.026,4.041a24.148,24.148,0,0,0-9.22,6.164c-4.441,4.56-4.381,11.753-4.333,17.532.03,3.533.06,7.184-1.15,8.224-.144.124-.583.5-1.879.292A4.454,4.454,0,0,1,32.41,48.94c-1.582-2.9.086-8.13.861-9.9a1.315,1.315,0,0,0-2.1-1.494c-13.581,12.579-13.736,26.8-13.736,27.4,0,16.825,13.711,30.559,31.215,31.269a56.858,56.858,0,0,0,5.87-.034c12.69-.667,29.315-5.652,32.583-26.526C89.4,54.993,79.064,37.039,78.622,36.282ZM56.427,58.139c4.69,4.1,13.3,13,12.889,22.85-.408,9.751-8.9,12.127-15.033,12.561-1.312.063-2.567.107-3.824.055-8.449-.341-15.068-6.936-15.069-15.014a19.717,19.717,0,0,1,4.881-11.406c.484,3.345,1.885,8.3,5.947,9,1.954.339,4.187-.782,6.115-3.077a20.145,20.145,0,0,0,4.094-14.973Zm28.079,11.1c-1.879,12-8.667,18.271-16.38,21.43A14.453,14.453,0,0,0,71.945,81.1c.621-14.862-16.219-26.977-16.937-27.483a1.315,1.315,0,0,0-2,1.518,17.305,17.305,0,0,1-2.7,16.285c-1.27,1.512-2.671,2.347-3.651,2.18-3.157-.548-3.984-7.165-4.019-9.439a1.315,1.315,0,0,0-2.209-.943c-7.592,7.034-7.68,15.033-7.68,15.374A17.3,17.3,0,0,0,38.45,91.394,28.617,28.617,0,0,1,20.069,64.943c0-.122.154-10.986,9.271-21.7a11.1,11.1,0,0,0,.752,6.947,7,7,0,0,0,5.384,3.518,4.735,4.735,0,0,0,4.015-.894c2.138-1.836,2.1-5.731,2.067-10.242-.047-5.574-.1-11.891,3.586-15.675a21.573,21.573,0,0,1,8.337-5.562c2.434-1,4.536-1.867,6.343-5.229C62.569,11,62.4,7.078,61.522,4.421c4.059,2.51,9.5,7.718,6.436,16.654a22.408,22.408,0,0,1-6.322,9.333c-2.685,2.405-5.855,6.191-5.713,10.587.1,2.983,1.71,5.723,4.794,8.143a9.149,9.149,0,0,0,9.312.827,14.727,14.727,0,0,0,7.986-9.182c2.825,5.745,8.1,18.207,6.491,28.457Z" transform="translate(-17.438 0)" fill="#009de0"/></svg>