<svg xmlns="http://www.w3.org/2000/svg" width="85.372" height="58.806" viewBox="0 0 85.372 58.806"><g transform="translate(-414.999 -1986)"><path d="M19.333,58.8c-5.512,0-13.3-.367-17.125-4.557a9.037,9.037,0,0,1-2.131-7.35c.367-3.675,1.911-7.129,3.381-10.437,1.617-3.675,3.234-7.129,3.234-10.731V1.468a1.47,1.47,0,1,1,2.94,0V25.723c0,4.189-1.764,8.158-3.454,11.907-1.47,3.234-2.866,6.321-3.16,9.555a6.107,6.107,0,0,0,1.4,5.071c3.381,3.675,11.686,3.6,16.684,3.6H66.961c5.806,0,12.127-.367,14.479-2.94A4.325,4.325,0,0,0,82.4,49.39c-.441-4.263-1.617-4.336-8.452-4.042-1.838.073-3.822.22-6.247.22-11.172,0-26.533-14.185-32.634-20.286C30.284,20.5,31.534,3.305,31.681,1.321a1.477,1.477,0,1,1,2.94.294c-.514,6.835-.368,18.742,2.5,21.609,4.557,4.557,20.212,19.4,30.576,19.4,2.278,0,4.336-.073,6.1-.221,6.541-.294,10.8-.514,11.539,6.688a7.446,7.446,0,0,1-1.69,5.806c-2.94,3.234-8.746,3.9-16.684,3.9H19.333Z" transform="translate(414.99 1986.008)" fill="#009de0"/><path d="M21.758,55.222a8.314,8.314,0,0,1-7.423-4.042c-4.189-6.688,1.323-13.891,1.543-14.185a1.47,1.47,0,1,1,2.352,1.764c-.073.074-4.483,5.88-1.4,10.8,2.94,4.7,8.893,1.764,9.114,1.69A1.479,1.479,0,1,1,27.271,53.9,11.951,11.951,0,0,1,21.758,55.222Z" transform="translate(411.609 1976.354)" fill="#009de0"/><path d="M26.877,42.9a4,4,0,0,1-2.866-1.176A6.239,6.239,0,0,1,22.1,37.31a15.393,15.393,0,0,1,1.69-5.953l.294-.662h0a20,20,0,0,0,1.69-9.922l-.073-.588c-.147-1.911-.368-4.263,1.176-5.365,1.029-.735,2.5-.661,4.483.22a8.189,8.189,0,0,1,4.189,5.365,13.058,13.058,0,0,1-2.2,11.245l-.073.073a7.417,7.417,0,0,0-1.1,1.543,5.2,5.2,0,0,0-.294,2.352,9.655,9.655,0,0,1-.735,4.336,4.8,4.8,0,0,1-3.9,2.94Zm-.441-11.1-.294.735a12.662,12.662,0,0,0-1.47,4.851,3.571,3.571,0,0,0,1.1,2.5A1.573,1.573,0,0,0,27.1,40.4,2.276,2.276,0,0,0,28.935,39a6.731,6.731,0,0,0,.588-3.16,7.33,7.33,0,0,1,.441-3.528c0-.073.073-.073.073-.147a8.483,8.483,0,0,1,1.47-2.131,10.42,10.42,0,0,0,1.764-8.893,6.18,6.18,0,0,0-2.866-3.748c-1.323-.588-1.837-.514-1.984-.441-.367.294-.22,2.278-.147,3.087l.073.588A23.362,23.362,0,0,1,26.436,31.8Z" transform="translate(409.137 1982.212)" fill="#009de0"/></g></svg>