<svg xmlns="http://www.w3.org/2000/svg" width="76.057" height="70.3" viewBox="0 0 76.057 70.3"><g transform="translate(-1421.932 -1692.85)"><path d="M3.214,68.921a1.476,1.476,0,0,1-1.455-1.149c-.153-.306-2.374-8.807-1.608-24.2A54.634,54.634,0,0,1,7.809,17.92V1.532a1.532,1.532,0,1,1,3.063,0V18.379a1.152,1.152,0,0,1-.306.842A50.859,50.859,0,0,0,3.214,43.727c-.766,14.933,1.455,23.2,1.455,23.28A1.531,1.531,0,0,1,3.6,68.921Z" transform="translate(1421.94 1692.85)" fill="#009de0"/><path d="M92.758,68.921a.574.574,0,0,1-.383-.077A1.531,1.531,0,0,1,91.3,66.93c0-.077,2.221-8.424,1.455-23.28a53.742,53.742,0,0,0-7.352-24.505A1.606,1.606,0,0,1,85.1,18.3V1.532a1.532,1.532,0,1,1,3.063,0V17.92a54.635,54.635,0,0,1,7.658,25.654c.766,15.392-1.455,23.893-1.608,24.2A1.476,1.476,0,0,1,92.758,68.921Z" transform="translate(1402.007 1692.85)" fill="#009de0"/><path d="M31.092,78.015A37.837,37.837,0,0,1,20.754,76.56a1.552,1.552,0,0,1,.842-2.987c.153.077,14.55,4.059,19.528-2.068V47.613C39.669,34.9,27.416,35.973,26.88,36.05a1.539,1.539,0,1,1-.306-3.063c.306,0,6.969-.689,12.1,3.446,3.063,2.527,4.9,6.2,5.437,10.951V72.042a1.152,1.152,0,0,1-.306.842C41.048,76.943,35.84,78.015,31.092,78.015Z" transform="translate(1417.343 1685.134)" fill="#009de0"/><path d="M61,78.016c-4.9,0-10.262-1.072-13.1-5.054a1.606,1.606,0,0,1-.306-.842V47.385c1.685-15.928,17.613-14.4,17.766-14.4a1.539,1.539,0,0,1-.306,3.063c-.536-.077-13.018-1.149-14.4,11.563V71.507C54.8,76.638,66.668,74.8,70.957,73.575a1.552,1.552,0,1,1,.842,2.987A43.111,43.111,0,0,1,61,78.016Z" transform="translate(1410.79 1685.133)" fill="#009de0"/><path d="M47.151,28.968A6.083,6.083,0,0,1,43.4,27.513a7.65,7.65,0,0,1-2.6-6.126c.23-3.293,2.527-6.433,6.2-8.577h0c5.437-3.14,9.343-3.446,11.717-.766a6.806,6.806,0,0,1,1.455,5.284,9.1,9.1,0,0,1-3.216,6.2A11.423,11.423,0,0,1,55.116,24.6c-.459.23-.919.536-1.378.766a16.82,16.82,0,0,0-1.378,1.072A10.177,10.177,0,0,1,48.3,28.815,2.977,2.977,0,0,1,47.151,28.968ZM48.53,15.413c-2.757,1.608-4.518,3.906-4.671,6.126a4.814,4.814,0,0,0,1.532,3.6,2.475,2.475,0,0,0,2.221.689,6.719,6.719,0,0,0,2.757-1.685,14.087,14.087,0,0,1,1.685-1.3,8.616,8.616,0,0,1,1.608-.919,12.25,12.25,0,0,0,1.455-.842,6.232,6.232,0,0,0,1.991-4.059,4.177,4.177,0,0,0-.689-2.987c-1.225-1.378-3.906-.919-7.888,1.378Z" transform="translate(1412.388 1690.455)" fill="#009de0"/><path d="M68.3,13.341H68a4.358,4.358,0,0,1-3.14-1.608,4.609,4.609,0,0,1,.459-5.743A6.418,6.418,0,0,1,70.142,4,1.561,1.561,0,0,1,71.6,5.147l.153.153a5.294,5.294,0,0,1,0,6.586l-.077.077A4.675,4.675,0,0,1,68.3,13.341Zm1-6.279a3.14,3.14,0,0,0-1.761,1,1.5,1.5,0,0,0-.077,1.914.983.983,0,0,0,.766.306,2.119,2.119,0,0,0,1.225-.383,2.184,2.184,0,0,0,0-2.68Z" transform="translate(1406.934 1691.915)" fill="#009de0"/></g></svg>